<svg width="88" height="21" viewBox="0 0 88 21" fill="none" xmlns="http://www.w3.org/2000/svg">
<path opacity="0.8" d="M44.5449 13.2646C44.5889 15.7607 46.6807 17.2197 49.8447 17.2197C53.1934 17.2197 55.1885 15.6025 55.1885 13.0537C55.1885 11.0586 53.958 9.95996 51.251 9.44141L49.9502 9.19531C48.5703 8.93164 47.9902 8.5625 47.9902 7.89453C47.9902 7.14746 48.6846 6.62012 49.8535 6.62012C51.0225 6.62012 51.8838 7.16504 51.9365 8.0791H54.9336C54.8984 5.66211 53.0176 4.09766 49.8271 4.09766C46.9092 4.09766 44.791 5.6709 44.791 8.11426C44.791 10.0479 46.1006 11.2871 48.6318 11.7617L49.9326 12.0078C51.4355 12.2979 51.9805 12.6582 51.9805 13.3613C51.9805 14.1348 51.1631 14.6973 49.9062 14.6973C48.667 14.6973 47.6914 14.1699 47.542 13.2646H44.5449ZM70.6045 17V4.31738H66.8779L63.6787 12.6055H63.6084L60.4092 4.31738H56.6826V17H59.5215V9.08105H59.5918L62.7207 17H64.5664L67.7041 9.08105H67.7656V17H70.6045ZM75.7461 17V4.31738H72.5205V17H75.7461ZM83.832 17V6.91895H87.3301V4.31738H77.1172V6.91895H80.6152V17H83.832Z" fill="#1B9B48"/>
<rect x="8.57031" y="1.65674" width="2.3961" height="23.961" rx="1.19805" transform="rotate(-39.3693 8.57031 1.65674)" fill="#1B9B48"/>
<rect y="7.98755" width="2.3961" height="15.3119" rx="1.19805" transform="rotate(-39.3693 0 7.98755)" fill="#1B9B48"/>
<rect x="20.8056" y="7.60327" width="2.3961" height="11.4839" rx="1.19805" transform="rotate(-39.3693 20.8056 7.60327)" fill="#1B9B48"/>
<rect x="6.86719" y="8.55786" width="2.3961" height="11.4839" rx="1.19805" transform="rotate(-39.3693 6.86719 8.55786)" fill="#1B9B48"/>
<rect x="26.4351" y="5.07288" width="2.3961" height="15.3119" rx="1.19805" transform="rotate(-39.3693 26.4351 5.07288)" fill="#1B9B48"/>
</svg>
